PathFileType	4	(X/Y/Z)	T1_P2_Vision_Movement_3_0-736.trc
DataRate	CameraRate	NumFrames	NumMarkers	Units	OrigDataRate	OrigDataStartFrame	OrigNumFrames
60	60	7	27	m	60	276	736
Frame#	Time	RHip			RKnee			RAnkle			RBigToe			RSmallToe			RHeel			LHip			LKnee			LAnkle			LBigToe			LSmallToe			LHeel			Neck			Head			Nose			RShoulder			RElbow			RWrist			RThumb			RIndex			RPinky			LShoulder			LElbow			LWrist			LThumb			LIndex			LPinky		
		X1	Y1	Z1	X2	Y2	Z2	X3	Y3	Z3	X4	Y4	Z4	X5	Y5	Z5	X6	Y6	Z6	X7	Y7	Z7	X8	Y8	Z8	X9	Y9	Z9	X10	Y10	Z10	X11	Y11	Z11	X12	Y12	Z12	X13	Y13	Z13	X14	Y14	Z14	X15	Y15	Z15	X16	Y16	Z16	X17	Y17	Z17	X18	Y18	Z18	X19	Y19	Z19	X20	Y20	Z20	X21	Y21	Z21	X22	Y22	Z22	X23	Y23	Z23	X24	Y24	Z24	X25	Y25	Z25	X26	Y26	Z26	X27	Y27	Z27
277	4.616666666666666	435.6917015562362	3670.9179368770947	659.2134835582186	820.2855542961402	3653.8319785849612	655.4206434227605	1206.3116963625814	3766.0004556472163	733.2260132694487	1291.7594516273866	3662.6079813186934	684.4632696240185	1266.9539524018696	3676.435073953018	622.570960820082	1249.698512246985	3792.970342668361	753.183557572164	462.2852611939151	3637.984072685879	874.0498892230895	845.8388352299818	3618.9522908924955	853.3857881963091	1223.7120796759484	3696.203467246402	852.686191497105	1324.282301098671	3623.30800279647	805.3560172594027	1284.4533485503885	3553.903841803254	822.1359562686672	1265.9240795464216	3732.3864602198682	859.5575061339559	-123.84073404325129	3602.7544844517315	785.3714956180899	-379.0661407960066	3524.689102887008	757.6607887674596	-237.31592110562698	3461.6065703904887	739.0373584158687	-59.44471627811342	3700.2254877530872	641.8275479765359	196.60664098267767	3815.64834007082	555.9979368804809	88.63304524634408	3609.5688985394163	518.527300208145	-29.3365722912641	3433.704565257228	502.0491769735872	-29.651374173601383	3335.5137444846587	415.38289085331695	36.68269391677864	3470.2868521788046	506.5147373151804	-30.960443248390696	3603.109757492283	964.3666749928346	235.0607019433838	3538.7339596205543	997.482702147191	484.2095824744501	3516.8725332139297	999.53417583315	600.4597019451738	3566.3089598003476	968.587044467924	607.0901735710006	3462.822754300121	954.680728279453	613.7059322536046	3481.5511492807186	1023.9981155920548
278	4.633333333333334	435.7230308478001	3670.711057293572	659.0208194673058	820.3861203929796	3653.6541540445673	655.2511357250081	1212.6675754346948	3770.4703760764014	734.4175915445579	1291.4340756494846	3661.7600253846263	684.0923819847516	1266.813417010808	3676.190030534748	622.4186811494741	1249.8715172587054	3793.0109146834743	753.2300186327541	462.06881378534354	3635.014418283208	877.8465765363269	851.961088493518	3623.4960125003727	855.1103985760616	1230.5314902381558	3700.8977945510956	854.3154251769528	1324.4442855957857	3623.3160361088726	805.4209736367931	1284.6973497590548	3554.0234005510565	822.2263054294523	1266.1825483105656	3732.502995746814	859.6212999990978	-123.86557044268203	3603.0388102425563	785.5006554648165	-384.1775349430807	3529.0836241141933	759.9430859685933	-237.335056269227	3461.6293003878022	739.1203915643447	-59.48374460111217	3700.4942888273326	641.8573616665035	196.61767878520945	3815.7226714837334	556.0446652576567	84.11243864750533	3608.0215938272127	517.8538475637392	-29.481304551754118	3433.325263487479	501.99965539058576	-10.845291032492149	3434.128634165481	494.89468252197366	32.79894320645395	3480.42487565829	512.5239431331528	-30.96660158322639	3603.2753184291387	964.436542357324	236.9689820677341	3560.2643009107264	1005.5263948889885	484.3213308290252	3517.2528968434713	999.6787794260995	600.264394653424	3566.190761301109	968.3579088171895	610.3358428211533	3457.8963388675706	951.0030702822658	617.490559722103	3477.1793117764687	1020.8417511744052
279	4.65	435.56567738410894	3670.6921515442086	659.0721973973979	820.1457257948254	3653.7683142039596	655.273460702543	1206.0127101067133	3766.3586806992635	733.3648031536321	1284.8136573893153	3658.244075445964	683.0604294275654	1266.2365252567436	3676.615444451488	622.6377185881267	1249.611528288177	3792.8652286731135	753.1548025253172	456.4117005200322	3631.0958661369177	876.4320734711212	847.9797167425935	3626.195363877199	858.0273512619549	1229.009852408746	3698.1661059272365	854.4739849084173	1324.1290530768424	3623.271334886054	805.272593733561	1284.4196433150387	3553.9078067278706	822.1425901533538	1266.1222694355467	3732.177606934195	859.4159661486203	-123.85261418993578	3603.184006404409	785.5559922073385	-384.2243795782731	3528.87863147034	759.8637034851544	-237.31491347036643	3461.6892230331173	739.1280006156641	-59.57836037811978	3700.828967054433	641.8477856231681	196.49498679466444	3815.5502734252873	556.0349441774833	87.50162199583843	3588.5335673264335	513.6443272488674	-29.330617887434318	3430.141121703533	505.55353356519146	-10.880865437328822	3433.8212993803263	494.5420653997005	31.886931717649556	3466.712838054969	510.490560940179	-30.942751689154505	3603.5245124295034	964.5880680786548	237.02341795145273	3560.1291875511483	1005.3449680229419	484.2230170841519	3516.508266278303	999.3799031428321	599.8841816964123	3565.7808905092716	968.1126436084603	614.5325663209697	3479.0425030760885	959.2095917696322	617.633257860707	3477.34023162251	1020.8332818259771
280	4.666666666666667	435.75921441408326	3670.9689118228016	659.1602615327217	820.4165535963198	3653.780260100798	655.4282783105396	1212.7897425311494	3770.7637766211337	734.5944286917762	1291.017792966795	3662.657716161416	684.1625268011668	1265.8894000435762	3673.3399193750447	625.9093874218125	1256.1027504002734	3795.2327435944976	754.9885665599347	456.62935917261103	3631.357670282261	876.5501231000094	852.0006785359242	3623.2675677366847	854.9239669677559	1230.6582847315276	3700.7528437669803	854.1706640013896	1315.56236203142	3600.4437676278703	797.5824198688102	1284.4484064487012	3553.2953010755846	821.9057582647553	1273.0755785178321	3736.929206563389	860.8105251857386	-123.85280069995117	3603.021762033926	785.4854350225968	-384.0165693337416	3524.4090454317616	762.9663589045184	-237.29955634610383	3461.647926024021	739.1753568434658	-59.61320901049103	3700.5105806350057	641.8011609722802	196.46322489638104	3815.773921391789	556.1020774231049	87.40738273031656	3588.147432158294	513.5322093580162	-28.7288111443642	3444.4712424396876	517.9761570381194	-11.298756177502323	3430.3950392974593	498.9589332006232	31.447919140189597	3465.1712042019567	510.29995046764606	-30.919790267226666	3603.452278807208	964.5139408022674	240.7125038123842	3554.956661902568	1001.6971523766622	487.592068225065	3539.1736102726877	1007.6769895146165	595.9735995698016	3552.293712443023	953.7990940601661	613.7824354423202	3479.321546368288	957.6495798650036	617.4730249120939	3477.6065980429144	1020.9900505375907
281	4.683333333333334	440.70144917046474	3675.115356041772	660.2839011808749	820.6786658078428	3654.1888214795863	655.7132145997512	1207.0633909381027	3769.2338309237475	733.184227039646	1288.6074568692252	3671.029499909692	682.7990370545607	1264.2306014028281	3681.250592793219	624.9400961072688	1256.5436102654464	3797.6167251779216	754.4958455494178	467.6991305745626	3639.544601179083	874.9602661722513	857.5549191003953	3625.0700214777125	856.168516563786	1230.7325091470816	3700.895027036632	854.2347409859551	1315.7099491164736	3601.3559531443375	797.8102586784856	1284.6005458680731	3553.9207250171794	822.1298101908317	1266.2416672201423	3732.3684626314475	859.4540890767051	-123.74240059268656	3602.8762635366265	785.4885203040175	-382.38162670957126	3516.755418692902	759.239747906533	-237.19320713484228	3461.6495007537874	739.1738206959545	-59.30561661019244	3721.1674437463626	647.2582719279641	196.41845576009962	3815.4197553000167	555.6713814358029	82.88403617204098	3586.6694420270346	512.7910413550608	-24.88080931545939	3431.25912895837	506.2612794155734	-6.888074707634547	3430.9250364011887	499.37915391722095	31.296544622838947	3464.523223031282	509.95425134153356	-30.110021714701507	3619.556515441917	979.7836158685722	245.96214861363785	3558.0382865450943	1003.5595699710447	492.4042541620452	3541.4312817552163	1009.0912082986168	596.9390323384689	3553.060984519182	954.3524592632729	613.9844153933936	3481.20054833704	958.2444365056446	621.9794014752747	3486.660220916726	1016.200037301214
282	4.7	440.62504160221306	3674.9287255017457	660.2123421134071	815.4530773796561	3652.0695015024016	654.0664520904257	1212.799728940914	3770.670783929984	734.5562949871331	1291.7470883996089	3663.6649605124594	684.6308866119509	1266.7619103058078	3676.972025087427	622.7790587998982	1256.438168255016	3797.460171151268	754.3977036319089	462.6361668082514	3638.2464932223206	874.0165667026538	857.5181347686294	3625.414425411038	856.3879583072888	1230.4449232403042	3700.610548104364	854.1089741430245	1307.986420800218	3585.4182494921924	784.0543870910168	1284.2610135771458	3553.276243709225	821.8479780150935	1265.6862354930388	3732.0034793575355	859.2731466005417	-123.85007556546935	3602.8606173203193	785.4455204548411	-387.4364667288238	3520.8891568787226	761.3255103658339	-237.23271385012484	3461.554700410889	739.1319798388847	-59.3329232204845	3721.3087126832547	647.2541212258611	196.38718781814293	3815.550864263867	555.6240589917198	83.23289432247222	3592.306939224001	515.5919236754303	-24.379602938907215	3442.6035476684065	522.2508339528001	-7.518498714565857	3430.164891357656	499.38545881340565	30.628513657528835	3463.8624682052046	509.93528868140265	-30.105444699632113	3619.687449810214	979.8539947974626	241.33225846428581	3556.194320518717	1002.3422283509605	487.75672398707906	3542.3409327013032	1003.3845927906867	596.7189970855849	3554.284443576704	950.4184720881578	613.6183877990711	3480.646682299652	957.1991062861052	617.8484608140806	3465.191434988934	1007.6516571539017
283	4.716666666666667	441.16601255566184	3678.896330071476	656.3908929397285	820.8609179519697	3653.7961365612978	655.5399459062645	1213.2119430490072	3770.5040466181363	734.5078457316421	1291.5706360309468	3663.1788170550203	684.2606110237529	1278.5163114750778	3681.669690093449	624.5618110311746	1269.3745706284808	3803.910437831128	757.2544633675724	471.7706012199224	3635.254026913529	872.3828318868705	857.7400308447607	3625.2226573297744	856.1511707617865	1230.5311603346433	3700.7124970160494	854.1088004709668	1315.5578811488208	3600.6504547109457	797.5118885043738	1284.391260027743	3553.1960148431804	821.6894277005072	1265.7194270742757	3731.912325087372	859.2337872157897	-123.79304538121181	3602.6346331370933	785.302488089645	-380.78468030969424	3496.6310874027045	753.1078381838272	-232.7097506861375	3457.8406377706265	737.0923178694028	-59.37911618283911	3721.549512516575	647.2137288291476	196.30495443413753	3817.0736882104347	551.3146831506167	78.74503740676447	3590.803525878043	514.9802443963962	-29.879796436899962	3426.8537308963737	509.410702976633	-16.854326402287175	3430.5486003372534	499.7553058952906	28.08521896342924	3443.3865614017727	504.67778466793214	-30.016894441257516	3619.9438792647793	979.9325179340842	241.28754866843968	3556.7374291092838	1002.3817754799936	492.4527892339058	3544.1179045337403	1004.592091173982	599.8110824020413	3550.5118044767682	947.9406520268498	613.7424581258484	3481.222775966499	957.5686364602625	622.0311803072659	3486.930098893051	1016.1146532531128
